<svg xmlns="http://www.w3.org/2000/svg" viewBox="0 0 39 26" width="24" height="16" role="presentation">
  <rect width="39" height="26" fill="#B31942"/>
  <g fill="#FFFFFF">
    <rect y="2" width="39" height="2"/><rect y="6" width="39" height="2"/>
    <rect y="10" width="39" height="2"/><rect y="14" width="39" height="2"/>
    <rect y="18" width="39" height="2"/><rect y="22" width="39" height="2"/>
  </g>
  <rect width="15.6" height="14" fill="#0A3161"/>
  <g fill="#FFFFFF">
    <circle cx="1.6" cy="2.0" r=".72"/><circle cx="4.4" cy="2.0" r=".72"/><circle cx="7.2" cy="2.0" r=".72"/><circle cx="10.0" cy="2.0" r=".72"/><circle cx="12.8" cy="2.0" r=".72"/>
    <circle cx="3.0" cy="4.4" r=".72"/><circle cx="5.8" cy="4.4" r=".72"/><circle cx="8.6" cy="4.4" r=".72"/><circle cx="11.4" cy="4.4" r=".72"/>
    <circle cx="1.6" cy="6.8" r=".72"/><circle cx="4.4" cy="6.8" r=".72"/><circle cx="7.2" cy="6.8" r=".72"/><circle cx="10.0" cy="6.8" r=".72"/><circle cx="12.8" cy="6.8" r=".72"/>
    <circle cx="3.0" cy="9.2" r=".72"/><circle cx="5.8" cy="9.2" r=".72"/><circle cx="8.6" cy="9.2" r=".72"/><circle cx="11.4" cy="9.2" r=".72"/>
    <circle cx="1.6" cy="11.6" r=".72"/><circle cx="4.4" cy="11.6" r=".72"/><circle cx="7.2" cy="11.6" r=".72"/><circle cx="10.0" cy="11.6" r=".72"/><circle cx="12.8" cy="11.6" r=".72"/>
  </g>
</svg>
